<svg xmlns="http://www.w3.org/2000/svg" xmlns:xlink="http://www.w3.org/1999/xlink" width="500" zoomAndPan="magnify" viewBox="0 0 375 374.999991" height="500" preserveAspectRatio="xMidYMid meet" version="1.0"><defs><g/><clipPath id="6bce07edfa"><path d="M 123.101562 31 L 251.898438 31 L 251.898438 242.722656 L 123.101562 242.722656 Z M 123.101562 31 " clip-rule="nonzero"/></clipPath><clipPath id="d52f9971bd"><path d="M 81.457031 20.722656 L 293.542969 20.722656 L 293.542969 242.722656 L 81.457031 242.722656 Z M 81.457031 20.722656 " clip-rule="nonzero"/></clipPath></defs><g clip-path="url(#6bce07edfa)"><path fill="#685f2e" d="M 196.910156 242.722656 L 209.789062 216.378906 C 210.191406 215.535156 211.105469 215.0625 212.027344 215.222656 L 246.652344 221.691406 L 203.695312 150.59375 L 189.582031 187.722656 L 189.582031 229.550781 Z M 222.050781 37.976562 L 210.25 37.128906 L 211.792969 34.820312 L 214.027344 31.425781 Z M 225.367188 91.820312 L 225.367188 92.4375 C 225.371094 92.511719 225.371094 92.589844 225.367188 92.667969 C 225.359375 92.824219 225.332031 92.980469 225.289062 93.128906 L 211.023438 130.796875 L 251.359375 103.222656 L 251.359375 33.96875 L 216.421875 73.792969 Z M 149.476562 93.128906 C 149.464844 93.003906 149.464844 92.871094 149.476562 92.746094 L 149.476562 92.28125 L 149.554688 92.28125 L 158.425781 74.335938 L 123.488281 34.507812 L 123.488281 104.066406 L 163.824219 131.644531 L 149.476562 93.976562 L 149.476562 93.128906 " fill-opacity="1" fill-rule="nonzero"/></g><g clip-path="url(#d52f9971bd)"><path fill="#a4950c" d="M 128.347656 221.691406 L 162.972656 215.222656 L 163.359375 215.222656 C 164.144531 215.226562 164.863281 215.671875 165.210938 216.378906 L 178.089844 242.722656 L 185.417969 229.472656 L 185.417969 187.722656 L 171.304688 150.59375 Z M 154.257812 93.976562 L 187.5 181.480469 L 220.742188 93.976562 L 186.882812 81.574219 L 154.257812 93.898438 Z M 288.222656 129.410156 L 293.542969 94.132812 L 255.675781 35.511719 L 255.675781 103.683594 Z M 86.777344 129.410156 L 119.324219 103.683594 L 119.324219 35.511719 L 81.457031 94.132812 Z M 225.523438 93.128906 Z M 225.523438 92.589844 Z M 149.554688 93.515625 Z M 158.5 73.949219 L 149.632812 91.894531 Z M 149.476562 92.28125 L 149.476562 92.359375 Z M 149.402344 93.128906 C 149.394531 93.050781 149.394531 92.976562 149.402344 92.898438 C 149.425781 92.953125 149.449219 93.003906 149.476562 93.050781 Z M 149.554688 91.894531 Z M 149.402344 92.589844 L 149.402344 92.667969 Z M 204.699219 37.820312 L 210.714844 28.808594 Z M 200.765625 20.722656 L 167.292969 66.554688 Z M 167.292969 66.554688 L 200.765625 20.722656 L 210.714844 28.808594 L 201.074219 43.523438 L 207.9375 66.632812 L 167.292969 66.632812 L 167.292969 66.554688 " fill-opacity="1" fill-rule="nonzero"/></g><path fill="#423c04" d="M 374.523438 135.882812 L 320.460938 68.171875 L 259.84375 34.355469 L 262.847656 38.976562 L 297.246094 92.128906 Z M 115.15625 34.355469 L 112.152344 38.976562 Z M 0.476562 135.882812 L 77.832031 92.128906 L 112.226562 38.976562 L 115.234375 34.355469 L 54.539062 68.171875 Z M 195.210938 21.261719 L 190.277344 28.039062 L 167.601562 59.082031 L 175.160156 26.730469 Z M 186.496094 77.261719 L 219.273438 88.894531 L 210.25 70.710938 L 164.75 70.710938 L 155.800781 88.816406 L 186.496094 77.261719 " fill-opacity="1" fill-rule="nonzero"/><g fill="#423c04" fill-opacity="1"><g transform="translate(131.120296, 288.141128)"><g><path d="M 11.359375 -22.90625 C 12.835938 -22.90625 14.148438 -22.597656 15.296875 -21.984375 C 16.441406 -21.378906 17.320312 -20.523438 17.9375 -19.421875 C 18.5625 -18.316406 18.875 -17.046875 18.875 -15.609375 C 18.875 -14.191406 18.550781 -12.9375 17.90625 -11.84375 C 17.269531 -10.75 16.363281 -9.90625 15.1875 -9.3125 C 14.007812 -8.726562 12.644531 -8.4375 11.09375 -8.4375 L 7.171875 -8.4375 C 7.015625 -8.4375 6.9375 -8.363281 6.9375 -8.21875 L 6.9375 -0.59375 C 6.9375 -0.414062 6.878906 -0.269531 6.765625 -0.15625 C 6.660156 -0.0507812 6.519531 0 6.34375 0 L 2.09375 0 C 1.914062 0 1.769531 -0.0507812 1.65625 -0.15625 C 1.550781 -0.269531 1.5 -0.414062 1.5 -0.59375 L 1.5 -22.3125 C 1.5 -22.488281 1.550781 -22.628906 1.65625 -22.734375 C 1.769531 -22.847656 1.914062 -22.90625 2.09375 -22.90625 Z M 10.46875 -12.765625 C 11.363281 -12.765625 12.085938 -13.015625 12.640625 -13.515625 C 13.203125 -14.015625 13.484375 -14.664062 13.484375 -15.46875 C 13.484375 -16.300781 13.203125 -16.972656 12.640625 -17.484375 C 12.085938 -17.992188 11.363281 -18.25 10.46875 -18.25 L 7.171875 -18.25 C 7.015625 -18.25 6.9375 -18.175781 6.9375 -18.03125 L 6.9375 -12.984375 C 6.9375 -12.835938 7.015625 -12.765625 7.171875 -12.765625 Z M 10.46875 -12.765625 "/></g></g></g><g fill="#423c04" fill-opacity="1"><g transform="translate(150.681051, 288.141128)"><g><path d="M 16.71875 0 C 16.375 0 16.15625 -0.160156 16.0625 -0.484375 L 15.3125 -3.171875 C 15.289062 -3.304688 15.203125 -3.375 15.046875 -3.375 L 7.65625 -3.375 C 7.519531 -3.375 7.429688 -3.304688 7.390625 -3.171875 L 6.640625 -0.484375 C 6.554688 -0.160156 6.335938 0 5.984375 0 L 1.375 0 C 1.15625 0 1 -0.0546875 0.90625 -0.171875 C 0.820312 -0.296875 0.816406 -0.457031 0.890625 -0.65625 L 7.75 -22.40625 C 7.863281 -22.738281 8.09375 -22.90625 8.4375 -22.90625 L 14.234375 -22.90625 C 14.597656 -22.90625 14.828125 -22.738281 14.921875 -22.40625 L 21.828125 -0.65625 C 21.847656 -0.613281 21.859375 -0.535156 21.859375 -0.421875 C 21.859375 -0.140625 21.679688 0 21.328125 0 Z M 8.734375 -7.75 C 8.734375 -7.625 8.800781 -7.5625 8.9375 -7.5625 L 13.78125 -7.5625 C 13.863281 -7.5625 13.921875 -7.585938 13.953125 -7.640625 C 13.984375 -7.691406 13.988281 -7.75 13.96875 -7.8125 L 11.484375 -16.515625 C 11.460938 -16.628906 11.421875 -16.6875 11.359375 -16.6875 C 11.304688 -16.6875 11.257812 -16.628906 11.21875 -16.515625 L 8.734375 -7.8125 Z M 8.734375 -7.75 "/></g></g></g><g fill="#423c04" fill-opacity="1"><g transform="translate(173.381994, 288.141128)"><g><path d="M 14.03125 0 C 13.707031 0 13.476562 -0.148438 13.34375 -0.453125 L 9.546875 -8.96875 C 9.503906 -9.070312 9.421875 -9.125 9.296875 -9.125 L 7.265625 -9.125 C 7.109375 -9.125 7.03125 -9.050781 7.03125 -8.90625 L 7.03125 -0.59375 C 7.03125 -0.414062 6.972656 -0.269531 6.859375 -0.15625 C 6.753906 -0.0507812 6.617188 0 6.453125 0 L 2.1875 0 C 2.019531 0 1.878906 -0.0507812 1.765625 -0.15625 C 1.660156 -0.269531 1.609375 -0.414062 1.609375 -0.59375 L 1.609375 -22.3125 C 1.609375 -22.488281 1.660156 -22.628906 1.765625 -22.734375 C 1.878906 -22.847656 2.019531 -22.90625 2.1875 -22.90625 L 11.71875 -22.90625 C 13.15625 -22.90625 14.414062 -22.609375 15.5 -22.015625 C 16.59375 -21.429688 17.4375 -20.597656 18.03125 -19.515625 C 18.632812 -18.429688 18.9375 -17.191406 18.9375 -15.796875 C 18.9375 -14.359375 18.582031 -13.101562 17.875 -12.03125 C 17.164062 -10.96875 16.179688 -10.195312 14.921875 -9.71875 C 14.765625 -9.65625 14.71875 -9.546875 14.78125 -9.390625 L 18.984375 -0.6875 L 19.046875 -0.421875 C 19.046875 -0.140625 18.867188 0 18.515625 0 Z M 7.265625 -18.25 C 7.109375 -18.25 7.03125 -18.175781 7.03125 -18.03125 L 7.03125 -13.515625 C 7.03125 -13.359375 7.109375 -13.28125 7.265625 -13.28125 L 10.828125 -13.28125 C 11.640625 -13.28125 12.296875 -13.503906 12.796875 -13.953125 C 13.296875 -14.398438 13.546875 -14.992188 13.546875 -15.734375 C 13.546875 -16.503906 13.296875 -17.113281 12.796875 -17.5625 C 12.296875 -18.019531 11.640625 -18.25 10.828125 -18.25 Z M 7.265625 -18.25 "/></g></g></g><g fill="#423c04" fill-opacity="1"><g transform="translate(193.466114, 288.141128)"><g><path d="M 9.78125 -23.171875 C 11.507812 -23.171875 13.023438 -22.8125 14.328125 -22.09375 C 15.640625 -21.382812 16.65625 -20.382812 17.375 -19.09375 C 18.09375 -17.8125 18.453125 -16.332031 18.453125 -14.65625 L 18.453125 -7.8125 C 18.453125 -5.894531 17.941406 -4.257812 16.921875 -2.90625 C 15.910156 -1.5625 14.515625 -0.632812 12.734375 -0.125 C 12.597656 -0.0625 12.53125 0.0195312 12.53125 0.125 L 12.53125 2.421875 C 12.53125 2.597656 12.472656 2.738281 12.359375 2.84375 C 12.253906 2.957031 12.113281 3.015625 11.9375 3.015625 L 7.6875 3.015625 C 7.507812 3.015625 7.363281 2.957031 7.25 2.84375 C 7.144531 2.738281 7.09375 2.597656 7.09375 2.421875 L 7.09375 0.125 C 7.09375 0.0195312 7.03125 -0.0625 6.90625 -0.125 C 5.113281 -0.601562 3.703125 -1.519531 2.671875 -2.875 C 1.648438 -4.226562 1.140625 -5.875 1.140625 -7.8125 L 1.140625 -14.65625 C 1.140625 -16.332031 1.5 -17.8125 2.21875 -19.09375 C 2.9375 -20.382812 3.953125 -21.382812 5.265625 -22.09375 C 6.578125 -22.8125 8.082031 -23.171875 9.78125 -23.171875 Z M 13.015625 -14.953125 C 13.015625 -16.023438 12.71875 -16.882812 12.125 -17.53125 C 11.539062 -18.1875 10.757812 -18.515625 9.78125 -18.515625 C 8.820312 -18.515625 8.046875 -18.1875 7.453125 -17.53125 C 6.867188 -16.882812 6.578125 -16.023438 6.578125 -14.953125 L 6.578125 -7.953125 C 6.578125 -6.878906 6.867188 -6.015625 7.453125 -5.359375 C 8.046875 -4.710938 8.820312 -4.390625 9.78125 -4.390625 C 10.757812 -4.390625 11.539062 -4.710938 12.125 -5.359375 C 12.71875 -6.015625 13.015625 -6.878906 13.015625 -7.953125 Z M 13.015625 -14.953125 "/></g></g></g><g fill="#423c04" fill-opacity="1"><g transform="translate(213.092298, 288.141128)"><g><path d="M 10.203125 0.265625 C 8.484375 0.265625 6.960938 -0.0664062 5.640625 -0.734375 C 4.328125 -1.398438 3.300781 -2.34375 2.5625 -3.5625 C 1.832031 -4.789062 1.46875 -6.195312 1.46875 -7.78125 L 1.46875 -22.3125 C 1.46875 -22.488281 1.519531 -22.628906 1.625 -22.734375 C 1.738281 -22.847656 1.882812 -22.90625 2.0625 -22.90625 L 6.3125 -22.90625 C 6.488281 -22.90625 6.628906 -22.847656 6.734375 -22.734375 C 6.847656 -22.628906 6.90625 -22.488281 6.90625 -22.3125 L 6.90625 -7.78125 C 6.90625 -6.757812 7.203125 -5.9375 7.796875 -5.3125 C 8.398438 -4.695312 9.203125 -4.390625 10.203125 -4.390625 C 11.191406 -4.390625 11.984375 -4.695312 12.578125 -5.3125 C 13.179688 -5.9375 13.484375 -6.757812 13.484375 -7.78125 L 13.484375 -22.3125 C 13.484375 -22.488281 13.535156 -22.628906 13.640625 -22.734375 C 13.753906 -22.847656 13.894531 -22.90625 14.0625 -22.90625 L 18.328125 -22.90625 C 18.492188 -22.90625 18.628906 -22.847656 18.734375 -22.734375 C 18.847656 -22.628906 18.90625 -22.488281 18.90625 -22.3125 L 18.90625 -7.78125 C 18.90625 -6.195312 18.546875 -4.789062 17.828125 -3.5625 C 17.109375 -2.34375 16.085938 -1.398438 14.765625 -0.734375 C 13.453125 -0.0664062 11.929688 0.265625 10.203125 0.265625 Z M 10.203125 0.265625 "/></g></g></g><g fill="#423c04" fill-opacity="1"><g transform="translate(233.470815, 288.141128)"><g><path d="M 17.859375 -18.84375 C 17.859375 -18.664062 17.800781 -18.519531 17.6875 -18.40625 C 17.582031 -18.300781 17.445312 -18.25 17.28125 -18.25 L 7.265625 -18.25 C 7.109375 -18.25 7.03125 -18.175781 7.03125 -18.03125 L 7.03125 -14.140625 C 7.03125 -13.984375 7.109375 -13.90625 7.265625 -13.90625 L 13.578125 -13.90625 C 13.753906 -13.90625 13.894531 -13.847656 14 -13.734375 C 14.113281 -13.628906 14.171875 -13.488281 14.171875 -13.3125 L 14.171875 -9.875 C 14.171875 -9.707031 14.113281 -9.566406 14 -9.453125 C 13.894531 -9.347656 13.753906 -9.296875 13.578125 -9.296875 L 7.265625 -9.296875 C 7.109375 -9.296875 7.03125 -9.21875 7.03125 -9.0625 L 7.03125 -4.875 C 7.03125 -4.71875 7.109375 -4.640625 7.265625 -4.640625 L 17.28125 -4.640625 C 17.445312 -4.640625 17.582031 -4.582031 17.6875 -4.46875 C 17.800781 -4.363281 17.859375 -4.226562 17.859375 -4.0625 L 17.859375 -0.59375 C 17.859375 -0.414062 17.800781 -0.269531 17.6875 -0.15625 C 17.582031 -0.0507812 17.445312 0 17.28125 0 L 2.1875 0 C 2.019531 0 1.878906 -0.0507812 1.765625 -0.15625 C 1.660156 -0.269531 1.609375 -0.414062 1.609375 -0.59375 L 1.609375 -22.3125 C 1.609375 -22.488281 1.660156 -22.628906 1.765625 -22.734375 C 1.878906 -22.847656 2.019531 -22.90625 2.1875 -22.90625 L 17.28125 -22.90625 C 17.445312 -22.90625 17.582031 -22.847656 17.6875 -22.734375 C 17.800781 -22.628906 17.859375 -22.488281 17.859375 -22.3125 Z M 17.859375 -18.84375 "/></g></g></g><g fill="#423c04" fill-opacity="1"><g transform="translate(130.629564, 320.529448)"><g><path d="M 10.015625 0.265625 C 8.265625 0.265625 6.726562 -0.0703125 5.40625 -0.75 C 4.09375 -1.425781 3.070312 -2.382812 2.34375 -3.625 C 1.613281 -4.875 1.25 -6.316406 1.25 -7.953125 L 1.25 -15.015625 C 1.25 -16.628906 1.613281 -18.050781 2.34375 -19.28125 C 3.070312 -20.519531 4.09375 -21.476562 5.40625 -22.15625 C 6.726562 -22.832031 8.265625 -23.171875 10.015625 -23.171875 C 11.753906 -23.171875 13.285156 -22.847656 14.609375 -22.203125 C 15.929688 -21.554688 16.957031 -20.648438 17.6875 -19.484375 C 18.414062 -18.316406 18.78125 -16.96875 18.78125 -15.4375 C 18.78125 -15.25 18.59375 -15.128906 18.21875 -15.078125 L 13.96875 -14.78125 L 13.8125 -14.78125 C 13.5 -14.78125 13.34375 -14.835938 13.34375 -14.953125 L 13.34375 -15.15625 C 13.34375 -16.175781 13.035156 -16.988281 12.421875 -17.59375 C 11.816406 -18.207031 11.015625 -18.515625 10.015625 -18.515625 C 9.003906 -18.515625 8.191406 -18.203125 7.578125 -17.578125 C 6.972656 -16.960938 6.671875 -16.15625 6.671875 -15.15625 L 6.671875 -7.71875 C 6.671875 -6.71875 6.972656 -5.910156 7.578125 -5.296875 C 8.191406 -4.691406 9.003906 -4.390625 10.015625 -4.390625 C 11.015625 -4.390625 11.816406 -4.691406 12.421875 -5.296875 C 13.035156 -5.910156 13.34375 -6.71875 13.34375 -7.71875 C 13.34375 -7.851562 13.390625 -7.953125 13.484375 -8.015625 C 13.585938 -8.078125 13.738281 -8.097656 13.9375 -8.078125 L 18.21875 -7.859375 C 18.59375 -7.804688 18.78125 -7.75 18.78125 -7.6875 L 18.78125 -7.53125 C 18.78125 -5.976562 18.414062 -4.613281 17.6875 -3.4375 C 16.957031 -2.257812 15.929688 -1.347656 14.609375 -0.703125 C 13.285156 -0.0546875 11.753906 0.265625 10.015625 0.265625 Z M 10.015625 0.265625 "/></g></g></g><g fill="#423c04" fill-opacity="1"><g transform="translate(150.55013, 320.529448)"><g><path d="M 10.140625 0.359375 C 8.378906 0.359375 6.828125 0.00390625 5.484375 -0.703125 C 4.140625 -1.410156 3.097656 -2.40625 2.359375 -3.6875 C 1.617188 -4.976562 1.25 -6.472656 1.25 -8.171875 L 1.25 -14.71875 C 1.25 -16.375 1.617188 -17.835938 2.359375 -19.109375 C 3.097656 -20.390625 4.140625 -21.382812 5.484375 -22.09375 C 6.828125 -22.8125 8.378906 -23.171875 10.140625 -23.171875 C 11.910156 -23.171875 13.46875 -22.8125 14.8125 -22.09375 C 16.164062 -21.382812 17.210938 -20.390625 17.953125 -19.109375 C 18.703125 -17.835938 19.078125 -16.375 19.078125 -14.71875 L 19.078125 -8.171875 C 19.078125 -6.472656 18.703125 -4.976562 17.953125 -3.6875 C 17.210938 -2.40625 16.164062 -1.410156 14.8125 -0.703125 C 13.46875 0.00390625 11.910156 0.359375 10.140625 0.359375 Z M 10.140625 -4.28125 C 11.191406 -4.28125 12.035156 -4.617188 12.671875 -5.296875 C 13.316406 -5.972656 13.640625 -6.878906 13.640625 -8.015625 L 13.640625 -14.78125 C 13.640625 -15.894531 13.316406 -16.796875 12.671875 -17.484375 C 12.035156 -18.171875 11.191406 -18.515625 10.140625 -18.515625 C 9.117188 -18.515625 8.285156 -18.171875 7.640625 -17.484375 C 6.992188 -16.796875 6.671875 -15.894531 6.671875 -14.78125 L 6.671875 -8.015625 C 6.671875 -6.878906 6.992188 -5.972656 7.640625 -5.296875 C 8.285156 -4.617188 9.117188 -4.28125 10.140625 -4.28125 Z M 10.140625 -4.28125 "/></g></g></g><g fill="#423c04" fill-opacity="1"><g transform="translate(170.863217, 320.529448)"><g><path d="M 2.21875 0 C 2.050781 0 1.910156 -0.0507812 1.796875 -0.15625 C 1.691406 -0.269531 1.640625 -0.414062 1.640625 -0.59375 L 1.640625 -22.3125 C 1.640625 -22.488281 1.691406 -22.628906 1.796875 -22.734375 C 1.910156 -22.847656 2.050781 -22.90625 2.21875 -22.90625 L 6.25 -22.90625 C 6.550781 -22.90625 6.78125 -22.773438 6.9375 -22.515625 L 14.140625 -10.34375 C 14.179688 -10.25 14.234375 -10.210938 14.296875 -10.234375 C 14.359375 -10.265625 14.390625 -10.332031 14.390625 -10.4375 L 14.359375 -22.3125 C 14.359375 -22.488281 14.410156 -22.628906 14.515625 -22.734375 C 14.628906 -22.847656 14.773438 -22.90625 14.953125 -22.90625 L 19.140625 -22.90625 C 19.316406 -22.90625 19.457031 -22.847656 19.5625 -22.734375 C 19.675781 -22.628906 19.734375 -22.488281 19.734375 -22.3125 L 19.734375 -0.59375 C 19.734375 -0.414062 19.675781 -0.269531 19.5625 -0.15625 C 19.457031 -0.0507812 19.316406 0 19.140625 0 L 15.109375 0 C 14.828125 0 14.597656 -0.128906 14.421875 -0.390625 L 7.234375 -12.734375 C 7.191406 -12.835938 7.128906 -12.878906 7.046875 -12.859375 C 6.972656 -12.835938 6.9375 -12.769531 6.9375 -12.65625 L 7 -0.59375 C 7 -0.414062 6.941406 -0.269531 6.828125 -0.15625 C 6.722656 -0.0507812 6.582031 0 6.40625 0 Z M 2.21875 0 "/></g></g></g><g fill="#423c04" fill-opacity="1"><g transform="translate(192.223033, 320.529448)"><g><path d="M 2.1875 0 C 2.019531 0 1.878906 -0.0507812 1.765625 -0.15625 C 1.660156 -0.269531 1.609375 -0.414062 1.609375 -0.59375 L 1.609375 -22.3125 C 1.609375 -22.488281 1.660156 -22.628906 1.765625 -22.734375 C 1.878906 -22.847656 2.019531 -22.90625 2.1875 -22.90625 L 10.34375 -22.90625 C 12.039062 -22.90625 13.539062 -22.609375 14.84375 -22.015625 C 16.15625 -21.429688 17.171875 -20.59375 17.890625 -19.5 C 18.617188 -18.40625 18.984375 -17.148438 18.984375 -15.734375 L 18.984375 -7.171875 C 18.984375 -5.742188 18.617188 -4.484375 17.890625 -3.390625 C 17.171875 -2.304688 16.15625 -1.46875 14.84375 -0.875 C 13.539062 -0.289062 12.039062 0 10.34375 0 Z M 7.03125 -4.875 C 7.03125 -4.71875 7.109375 -4.640625 7.265625 -4.640625 L 10.5625 -4.640625 C 11.4375 -4.640625 12.144531 -4.953125 12.6875 -5.578125 C 13.238281 -6.203125 13.523438 -7.035156 13.546875 -8.078125 L 13.546875 -14.828125 C 13.546875 -15.867188 13.265625 -16.695312 12.703125 -17.3125 C 12.148438 -17.9375 11.425781 -18.25 10.53125 -18.25 L 7.265625 -18.25 C 7.109375 -18.25 7.03125 -18.175781 7.03125 -18.03125 Z M 7.03125 -4.875 "/></g></g></g><g fill="#423c04" fill-opacity="1"><g transform="translate(212.437998, 320.529448)"><g><path d="M 10.140625 0.359375 C 8.378906 0.359375 6.828125 0.00390625 5.484375 -0.703125 C 4.140625 -1.410156 3.097656 -2.40625 2.359375 -3.6875 C 1.617188 -4.976562 1.25 -6.472656 1.25 -8.171875 L 1.25 -14.71875 C 1.25 -16.375 1.617188 -17.835938 2.359375 -19.109375 C 3.097656 -20.390625 4.140625 -21.382812 5.484375 -22.09375 C 6.828125 -22.8125 8.378906 -23.171875 10.140625 -23.171875 C 11.910156 -23.171875 13.46875 -22.8125 14.8125 -22.09375 C 16.164062 -21.382812 17.210938 -20.390625 17.953125 -19.109375 C 18.703125 -17.835938 19.078125 -16.375 19.078125 -14.71875 L 19.078125 -8.171875 C 19.078125 -6.472656 18.703125 -4.976562 17.953125 -3.6875 C 17.210938 -2.40625 16.164062 -1.410156 14.8125 -0.703125 C 13.46875 0.00390625 11.910156 0.359375 10.140625 0.359375 Z M 10.140625 -4.28125 C 11.191406 -4.28125 12.035156 -4.617188 12.671875 -5.296875 C 13.316406 -5.972656 13.640625 -6.878906 13.640625 -8.015625 L 13.640625 -14.78125 C 13.640625 -15.894531 13.316406 -16.796875 12.671875 -17.484375 C 12.035156 -18.171875 11.191406 -18.515625 10.140625 -18.515625 C 9.117188 -18.515625 8.285156 -18.171875 7.640625 -17.484375 C 6.992188 -16.796875 6.671875 -15.894531 6.671875 -14.78125 L 6.671875 -8.015625 C 6.671875 -6.878906 6.992188 -5.972656 7.640625 -5.296875 C 8.285156 -4.617188 9.117188 -4.28125 10.140625 -4.28125 Z M 10.140625 -4.28125 "/></g></g></g><g fill="#423c04" fill-opacity="1"><g transform="translate(232.751085, 320.529448)"><g><path d="M 14.03125 0 C 13.707031 0 13.476562 -0.148438 13.34375 -0.453125 L 9.546875 -8.96875 C 9.503906 -9.070312 9.421875 -9.125 9.296875 -9.125 L 7.265625 -9.125 C 7.109375 -9.125 7.03125 -9.050781 7.03125 -8.90625 L 7.03125 -0.59375 C 7.03125 -0.414062 6.972656 -0.269531 6.859375 -0.15625 C 6.753906 -0.0507812 6.617188 0 6.453125 0 L 2.1875 0 C 2.019531 0 1.878906 -0.0507812 1.765625 -0.15625 C 1.660156 -0.269531 1.609375 -0.414062 1.609375 -0.59375 L 1.609375 -22.3125 C 1.609375 -22.488281 1.660156 -22.628906 1.765625 -22.734375 C 1.878906 -22.847656 2.019531 -22.90625 2.1875 -22.90625 L 11.71875 -22.90625 C 13.15625 -22.90625 14.414062 -22.609375 15.5 -22.015625 C 16.59375 -21.429688 17.4375 -20.597656 18.03125 -19.515625 C 18.632812 -18.429688 18.9375 -17.191406 18.9375 -15.796875 C 18.9375 -14.359375 18.582031 -13.101562 17.875 -12.03125 C 17.164062 -10.96875 16.179688 -10.195312 14.921875 -9.71875 C 14.765625 -9.65625 14.71875 -9.546875 14.78125 -9.390625 L 18.984375 -0.6875 L 19.046875 -0.421875 C 19.046875 -0.140625 18.867188 0 18.515625 0 Z M 7.265625 -18.25 C 7.109375 -18.25 7.03125 -18.175781 7.03125 -18.03125 L 7.03125 -13.515625 C 7.03125 -13.359375 7.109375 -13.28125 7.265625 -13.28125 L 10.828125 -13.28125 C 11.640625 -13.28125 12.296875 -13.503906 12.796875 -13.953125 C 13.296875 -14.398438 13.546875 -14.992188 13.546875 -15.734375 C 13.546875 -16.503906 13.296875 -17.113281 12.796875 -17.5625 C 12.296875 -18.019531 11.640625 -18.25 10.828125 -18.25 Z M 7.265625 -18.25 "/></g></g></g><g fill="#423c04" fill-opacity="1"><g transform="translate(141.508782, 343.152662)"><g><path d="M 9.375 -9.90625 C 9.375 -9.8125 9.34375 -9.734375 9.28125 -9.671875 C 9.226562 -9.617188 9.15625 -9.59375 9.0625 -9.59375 L 3.8125 -9.59375 C 3.738281 -9.59375 3.703125 -9.550781 3.703125 -9.46875 L 3.703125 -7.421875 C 3.703125 -7.347656 3.738281 -7.3125 3.8125 -7.3125 L 7.140625 -7.3125 C 7.222656 -7.3125 7.289062 -7.28125 7.34375 -7.21875 C 7.40625 -7.164062 7.4375 -7.09375 7.4375 -7 L 7.4375 -5.1875 C 7.4375 -5.09375 7.40625 -5.015625 7.34375 -4.953125 C 7.289062 -4.898438 7.222656 -4.875 7.140625 -4.875 L 3.8125 -4.875 C 3.738281 -4.875 3.703125 -4.835938 3.703125 -4.765625 L 3.703125 -0.3125 C 3.703125 -0.21875 3.671875 -0.140625 3.609375 -0.078125 C 3.554688 -0.0234375 3.484375 0 3.390625 0 L 1.15625 0 C 1.0625 0 0.984375 -0.0234375 0.921875 -0.078125 C 0.867188 -0.140625 0.84375 -0.21875 0.84375 -0.3125 L 0.84375 -11.71875 C 0.84375 -11.8125 0.867188 -11.882812 0.921875 -11.9375 C 0.984375 -12 1.0625 -12.03125 1.15625 -12.03125 L 9.0625 -12.03125 C 9.15625 -12.03125 9.226562 -12 9.28125 -11.9375 C 9.34375 -11.882812 9.375 -11.8125 9.375 -11.71875 Z M 9.375 -9.90625 "/></g></g></g><g fill="#423c04" fill-opacity="1"><g transform="translate(152.265787, 343.152662)"><g><path d="M 5.359375 0.140625 C 4.453125 0.140625 3.648438 -0.03125 2.953125 -0.375 C 2.265625 -0.726562 1.726562 -1.226562 1.34375 -1.875 C 0.96875 -2.519531 0.78125 -3.257812 0.78125 -4.09375 L 0.78125 -11.71875 C 0.78125 -11.8125 0.804688 -11.882812 0.859375 -11.9375 C 0.921875 -12 0.992188 -12.03125 1.078125 -12.03125 L 3.3125 -12.03125 C 3.40625 -12.03125 3.476562 -12 3.53125 -11.9375 C 3.59375 -11.882812 3.625 -11.8125 3.625 -11.71875 L 3.625 -4.09375 C 3.625 -3.550781 3.78125 -3.113281 4.09375 -2.78125 C 4.414062 -2.457031 4.835938 -2.296875 5.359375 -2.296875 C 5.878906 -2.296875 6.296875 -2.457031 6.609375 -2.78125 C 6.921875 -3.113281 7.078125 -3.550781 7.078125 -4.09375 L 7.078125 -11.71875 C 7.078125 -11.8125 7.101562 -11.882812 7.15625 -11.9375 C 7.21875 -12 7.296875 -12.03125 7.390625 -12.03125 L 9.625 -12.03125 C 9.71875 -12.03125 9.789062 -12 9.84375 -11.9375 C 9.90625 -11.882812 9.9375 -11.8125 9.9375 -11.71875 L 9.9375 -4.09375 C 9.9375 -3.257812 9.742188 -2.519531 9.359375 -1.875 C 8.984375 -1.226562 8.445312 -0.726562 7.75 -0.375 C 7.0625 -0.03125 6.265625 0.140625 5.359375 0.140625 Z M 5.359375 0.140625 "/></g></g></g><g fill="#423c04" fill-opacity="1"><g transform="translate(164.156863, 343.152662)"><g><path d="M 1.171875 0 C 1.078125 0 1 -0.0234375 0.9375 -0.078125 C 0.882812 -0.140625 0.859375 -0.21875 0.859375 -0.3125 L 0.859375 -11.71875 C 0.859375 -11.8125 0.882812 -11.882812 0.9375 -11.9375 C 1 -12 1.078125 -12.03125 1.171875 -12.03125 L 3.28125 -12.03125 C 3.445312 -12.03125 3.566406 -11.960938 3.640625 -11.828125 L 7.421875 -5.4375 C 7.441406 -5.382812 7.46875 -5.363281 7.5 -5.375 C 7.539062 -5.382812 7.5625 -5.421875 7.5625 -5.484375 L 7.546875 -11.71875 C 7.546875 -11.8125 7.570312 -11.882812 7.625 -11.9375 C 7.6875 -12 7.765625 -12.03125 7.859375 -12.03125 L 10.0625 -12.03125 C 10.144531 -12.03125 10.210938 -12 10.265625 -11.9375 C 10.328125 -11.882812 10.359375 -11.8125 10.359375 -11.71875 L 10.359375 -0.3125 C 10.359375 -0.21875 10.328125 -0.140625 10.265625 -0.078125 C 10.210938 -0.0234375 10.144531 0 10.0625 0 L 7.9375 0 C 7.789062 0 7.671875 -0.0664062 7.578125 -0.203125 L 3.796875 -6.6875 C 3.773438 -6.738281 3.742188 -6.757812 3.703125 -6.75 C 3.660156 -6.738281 3.640625 -6.707031 3.640625 -6.65625 L 3.671875 -0.3125 C 3.671875 -0.21875 3.640625 -0.140625 3.578125 -0.078125 C 3.523438 -0.0234375 3.457031 0 3.375 0 Z M 1.171875 0 "/></g></g></g><g fill="#423c04" fill-opacity="1"><g transform="translate(176.563435, 343.152662)"><g><path d="M 1.15625 0 C 1.0625 0 0.984375 -0.0234375 0.921875 -0.078125 C 0.867188 -0.140625 0.84375 -0.21875 0.84375 -0.3125 L 0.84375 -11.71875 C 0.84375 -11.8125 0.867188 -11.882812 0.921875 -11.9375 C 0.984375 -12 1.0625 -12.03125 1.15625 -12.03125 L 5.4375 -12.03125 C 6.320312 -12.03125 7.109375 -11.875 7.796875 -11.5625 C 8.484375 -11.257812 9.015625 -10.820312 9.390625 -10.25 C 9.773438 -9.675781 9.96875 -9.015625 9.96875 -8.265625 L 9.96875 -3.765625 C 9.96875 -3.015625 9.773438 -2.351562 9.390625 -1.78125 C 9.015625 -1.207031 8.484375 -0.765625 7.796875 -0.453125 C 7.109375 -0.148438 6.320312 0 5.4375 0 Z M 3.703125 -2.5625 C 3.703125 -2.476562 3.738281 -2.4375 3.8125 -2.4375 L 5.546875 -2.4375 C 6.003906 -2.4375 6.375 -2.597656 6.65625 -2.921875 C 6.945312 -3.253906 7.097656 -3.695312 7.109375 -4.25 L 7.109375 -7.78125 C 7.109375 -8.332031 6.960938 -8.769531 6.671875 -9.09375 C 6.378906 -9.425781 6 -9.59375 5.53125 -9.59375 L 3.8125 -9.59375 C 3.738281 -9.59375 3.703125 -9.550781 3.703125 -9.46875 Z M 3.703125 -2.5625 "/></g></g></g><g fill="#423c04" fill-opacity="1"><g transform="translate(188.368602, 343.152662)"><g><path d="M 8.78125 0 C 8.601562 0 8.488281 -0.0859375 8.4375 -0.265625 L 8.046875 -1.671875 C 8.035156 -1.734375 7.988281 -1.765625 7.90625 -1.765625 L 4.015625 -1.765625 C 3.953125 -1.765625 3.910156 -1.734375 3.890625 -1.671875 L 3.484375 -0.265625 C 3.441406 -0.0859375 3.328125 0 3.140625 0 L 0.71875 0 C 0.601562 0 0.519531 -0.03125 0.46875 -0.09375 C 0.425781 -0.15625 0.425781 -0.238281 0.46875 -0.34375 L 4.078125 -11.78125 C 4.128906 -11.945312 4.25 -12.03125 4.4375 -12.03125 L 7.484375 -12.03125 C 7.671875 -12.03125 7.789062 -11.945312 7.84375 -11.78125 L 11.46875 -0.34375 C 11.476562 -0.320312 11.484375 -0.28125 11.484375 -0.21875 C 11.484375 -0.0703125 11.390625 0 11.203125 0 Z M 4.59375 -4.078125 C 4.59375 -4.003906 4.625 -3.96875 4.6875 -3.96875 L 7.234375 -3.96875 C 7.285156 -3.96875 7.316406 -3.984375 7.328125 -4.015625 C 7.347656 -4.046875 7.351562 -4.078125 7.34375 -4.109375 L 6.03125 -8.6875 C 6.019531 -8.738281 6 -8.765625 5.96875 -8.765625 C 5.945312 -8.765625 5.921875 -8.738281 5.890625 -8.6875 L 4.59375 -4.109375 Z M 4.59375 -4.078125 "/></g></g></g><g fill="#423c04" fill-opacity="1"><g transform="translate(201.479672, 343.152662)"><g><path d="M 5.265625 0.140625 C 4.347656 0.140625 3.539062 -0.0351562 2.84375 -0.390625 C 2.15625 -0.742188 1.617188 -1.25 1.234375 -1.90625 C 0.847656 -2.5625 0.65625 -3.316406 0.65625 -4.171875 L 0.65625 -7.890625 C 0.65625 -8.734375 0.847656 -9.476562 1.234375 -10.125 C 1.617188 -10.78125 2.15625 -11.285156 2.84375 -11.640625 C 3.539062 -11.992188 4.347656 -12.171875 5.265625 -12.171875 C 6.179688 -12.171875 6.984375 -12 7.671875 -11.65625 C 8.367188 -11.320312 8.90625 -10.847656 9.28125 -10.234375 C 9.664062 -9.617188 9.859375 -8.910156 9.859375 -8.109375 C 9.859375 -8.003906 9.765625 -7.941406 9.578125 -7.921875 L 7.34375 -7.765625 L 7.25 -7.765625 C 7.09375 -7.765625 7.015625 -7.796875 7.015625 -7.859375 L 7.015625 -7.953125 C 7.015625 -8.492188 6.851562 -8.925781 6.53125 -9.25 C 6.207031 -9.570312 5.785156 -9.734375 5.265625 -9.734375 C 4.734375 -9.734375 4.304688 -9.566406 3.984375 -9.234375 C 3.660156 -8.910156 3.5 -8.484375 3.5 -7.953125 L 3.5 -4.0625 C 3.5 -3.53125 3.660156 -3.101562 3.984375 -2.78125 C 4.304688 -2.457031 4.734375 -2.296875 5.265625 -2.296875 C 5.785156 -2.296875 6.207031 -2.457031 6.53125 -2.78125 C 6.851562 -3.101562 7.015625 -3.53125 7.015625 -4.0625 C 7.015625 -4.125 7.039062 -4.171875 7.09375 -4.203125 C 7.144531 -4.242188 7.222656 -4.257812 7.328125 -4.25 L 9.578125 -4.125 C 9.765625 -4.101562 9.859375 -4.078125 9.859375 -4.046875 L 9.859375 -3.953125 C 9.859375 -3.140625 9.664062 -2.421875 9.28125 -1.796875 C 8.90625 -1.179688 8.367188 -0.703125 7.671875 -0.359375 C 6.984375 -0.0234375 6.179688 0.140625 5.265625 0.140625 Z M 5.265625 0.140625 "/></g></g></g><g fill="#423c04" fill-opacity="1"><g transform="translate(213.130198, 343.152662)"><g><path d="M 1.15625 0 C 1.0625 0 0.984375 -0.0234375 0.921875 -0.078125 C 0.867188 -0.140625 0.84375 -0.21875 0.84375 -0.3125 L 0.84375 -11.71875 C 0.84375 -11.8125 0.867188 -11.882812 0.921875 -11.9375 C 0.984375 -12 1.0625 -12.03125 1.15625 -12.03125 L 3.390625 -12.03125 C 3.484375 -12.03125 3.554688 -12 3.609375 -11.9375 C 3.671875 -11.882812 3.703125 -11.8125 3.703125 -11.71875 L 3.703125 -0.3125 C 3.703125 -0.21875 3.671875 -0.140625 3.609375 -0.078125 C 3.554688 -0.0234375 3.484375 0 3.390625 0 Z M 1.15625 0 "/></g></g></g><g fill="#423c04" fill-opacity="1"><g transform="translate(218.869768, 343.152662)"><g><path d="M 5.328125 0.1875 C 4.398438 0.1875 3.582031 0.00390625 2.875 -0.359375 C 2.175781 -0.734375 1.628906 -1.257812 1.234375 -1.9375 C 0.847656 -2.613281 0.65625 -3.398438 0.65625 -4.296875 L 0.65625 -7.734375 C 0.65625 -8.609375 0.847656 -9.378906 1.234375 -10.046875 C 1.628906 -10.710938 2.175781 -11.234375 2.875 -11.609375 C 3.582031 -11.984375 4.398438 -12.171875 5.328125 -12.171875 C 6.253906 -12.171875 7.070312 -11.984375 7.78125 -11.609375 C 8.5 -11.234375 9.050781 -10.710938 9.4375 -10.046875 C 9.820312 -9.378906 10.015625 -8.609375 10.015625 -7.734375 L 10.015625 -4.296875 C 10.015625 -3.398438 9.820312 -2.613281 9.4375 -1.9375 C 9.050781 -1.257812 8.5 -0.734375 7.78125 -0.359375 C 7.070312 0.00390625 6.253906 0.1875 5.328125 0.1875 Z M 5.328125 -2.25 C 5.878906 -2.25 6.320312 -2.425781 6.65625 -2.78125 C 7 -3.132812 7.171875 -3.613281 7.171875 -4.21875 L 7.171875 -7.765625 C 7.171875 -8.347656 7 -8.820312 6.65625 -9.1875 C 6.320312 -9.550781 5.878906 -9.734375 5.328125 -9.734375 C 4.785156 -9.734375 4.34375 -9.550781 4 -9.1875 C 3.664062 -8.820312 3.5 -8.347656 3.5 -7.765625 L 3.5 -4.21875 C 3.5 -3.613281 3.664062 -3.132812 4 -2.78125 C 4.34375 -2.425781 4.785156 -2.25 5.328125 -2.25 Z M 5.328125 -2.25 "/></g></g></g><g fill="#423c04" fill-opacity="1"><g transform="translate(230.726483, 343.152662)"><g><path d="M 1.171875 0 C 1.078125 0 1 -0.0234375 0.9375 -0.078125 C 0.882812 -0.140625 0.859375 -0.21875 0.859375 -0.3125 L 0.859375 -11.71875 C 0.859375 -11.8125 0.882812 -11.882812 0.9375 -11.9375 C 1 -12 1.078125 -12.03125 1.171875 -12.03125 L 3.28125 -12.03125 C 3.445312 -12.03125 3.566406 -11.960938 3.640625 -11.828125 L 7.421875 -5.4375 C 7.441406 -5.382812 7.46875 -5.363281 7.5 -5.375 C 7.539062 -5.382812 7.5625 -5.421875 7.5625 -5.484375 L 7.546875 -11.71875 C 7.546875 -11.8125 7.570312 -11.882812 7.625 -11.9375 C 7.6875 -12 7.765625 -12.03125 7.859375 -12.03125 L 10.0625 -12.03125 C 10.144531 -12.03125 10.210938 -12 10.265625 -11.9375 C 10.328125 -11.882812 10.359375 -11.8125 10.359375 -11.71875 L 10.359375 -0.3125 C 10.359375 -0.21875 10.328125 -0.140625 10.265625 -0.078125 C 10.210938 -0.0234375 10.144531 0 10.0625 0 L 7.9375 0 C 7.789062 0 7.671875 -0.0664062 7.578125 -0.203125 L 3.796875 -6.6875 C 3.773438 -6.738281 3.742188 -6.757812 3.703125 -6.75 C 3.660156 -6.738281 3.640625 -6.707031 3.640625 -6.65625 L 3.671875 -0.3125 C 3.671875 -0.21875 3.640625 -0.140625 3.578125 -0.078125 C 3.523438 -0.0234375 3.457031 0 3.375 0 Z M 1.171875 0 "/></g></g></g></svg>